# xmcd
# 
# Track frame offsets:
#     150
#     16927
#     33844
#     51203
#     63760
#     84146
#     105966
#     121331
#     138307
#     152308
#     165719
#     182979
#     198636
#     216832
#     236229
#     250962
#     265969
#     279536
# 
# Disc length: 3897
# 
# Revision: 3
# Processed by: cddbd v1.5.2PL0 Copyright (c) Steve Scherf et al.
# Submitted via: fre:ac v1.0.31
# 
DISCID=f10f3712
DTITLE=Now That's What I Call Music - Now Thats What I Call A Country Party
DYEAR=2013
DGENRE=Country
TTITLE0=Toby Keith - Red Solo Cup
TTITLE1=Luke Bryan - Country Girl (Shake It For Me)
TTITLE2=Jason Aldean - My Kinda Party
TTITLE3=Jake Owen - Barefoot Blue Jean Night
TTITLE4=Kenny Chesney - Beer In Mexico
TTITLE5=Brad Paisley - Alcohol
TTITLE6=Dierks Bentley - Tip It On Back
TTITLE7=Brantley Gilbert - Kick It In The Sticks
TTITLE8=Joe Nichols - Tequila Makes Her Clothes Fall Off
TTITLE9=Billy Currington - Pretty Good At Drinking Beer
TTITLE10=Alan Jackson and Jimmy Buffett - It's Five O'Clock Somewhere
TTITLE11=Montgomery Gentry - One In Every Crowd
TTITLE12=Rascal Flatts - Summer Nights
TTITLE13=Brooks and Dunn - Hillbilly Deluxe
TTITLE14=Gretchen Wilson - Here For The Party
TTITLE15=Big and Rich - Save A Horse (Ride A Cowboy)
TTITLE16=George Strait - Here For A Good Time
TTITLE17=Jerrod Niemann - One More Drinkin' Song
EXTD=
EXTT0=
EXTT1=
EXTT2=
EXTT3=
EXTT4=
EXTT5=
EXTT6=
EXTT7=
EXTT8=
EXTT9=
EXTT10=
EXTT11=
EXTT12=
EXTT13=
EXTT14=
EXTT15=
EXTT16=
EXTT17=
PLAYORDER=
